<?xml version="1.0" encoding="UTF-8"?>
<!DOCTYPE svg PUBLIC "-//W3C//DTD SVG 1.1//EN" "http://www.w3.org/Graphics/SVG/1.1/DTD/svg11.dtd">
<!-- Creator: CorelDRAW -->
<svg xmlns="http://www.w3.org/2000/svg" xml:space="preserve" width="2.00731in" height="0.32715in" version="1.1" style="shape-rendering:geometricPrecision; text-rendering:geometricPrecision; image-rendering:optimizeQuality; fill-rule:evenodd; clip-rule:evenodd"
viewBox="0 0 577.99 94.2"
 xmlns:xlink="http://www.w3.org/1999/xlink"
 xmlns:xodm="http://www.corel.com/coreldraw/odm/2003">
 <defs>
  <style type="text/css">
   <![CDATA[
    .fil0 {fill:white}
    .fil1 {fill:white;fill-rule:nonzero}
   ]]>
  </style>
 </defs>
 <g id="Layer_x0020_1">
  <metadata id="CorelCorpID_0Corel-Layer"/>
  <path class="fil0" d="M13.02 38.6c-14.26,12.64 -23.26,33.87 8.47,33.87 -8.85,-28.66 40.33,-38.93 59.28,-37.93 20.02,-15.84 19.43,-36.62 -8.47,-34.37 4.38,29.43 -34.97,40.93 -59.28,38.43z"/>
  <path class="fil0" d="M28 64.66c0,4.12 3.72,7.16 7.16,7.16 9.22,0 26.3,-19.54 36.48,-29.96 -12.26,0 -20.01,1.11 -28.02,5.2 -4.97,2.53 -15.62,10.71 -15.62,17.6z"/>
  <path class="fil0" d="M22.13 30.79c12.05,0 43.64,-5.48 43.64,-22.8 0,-4.41 -1.27,-7.17 -6.51,-7.17 -8.01,0 -33.45,25.09 -37.13,29.97z"/>
  <path class="fil1" d="M115.68 49.6c0,3.19 -1.04,5.65 -3.14,7.35 -2.09,1.71 -5.07,2.56 -8.94,2.56l-3.18 0 0 11.45 -5 0 0 -30.62 8.81 0c3.82,0 6.69,0.78 8.59,2.34 1.91,1.56 2.86,3.87 2.86,6.92zm-15.26 5.7l2.66 0c2.57,0 4.45,-0.45 5.65,-1.34 1.19,-0.89 1.79,-2.29 1.79,-4.19 0,-1.76 -0.54,-3.07 -1.61,-3.93 -1.07,-0.86 -2.75,-1.3 -5.02,-1.3l-3.47 0 0 10.76z"/>
  <path id="_1" class="fil1" d="M138.65 70.95l-3.06 -8.49 -11.7 0 -3 8.49 -5.27 0 11.45 -30.75 5.45 0 11.45 30.75 -5.32 0zm-4.37 -12.82l-2.87 -8.33c-0.21,-0.56 -0.5,-1.44 -0.87,-2.64 -0.37,-1.2 -0.62,-2.08 -0.77,-2.64 -0.38,1.72 -0.93,3.59 -1.65,5.64l-2.77 7.98 8.92 0z"/>
  <path id="_2" class="fil1" d="M160.18 44.19c-2.87,0 -5.14,1.02 -6.78,3.06 -1.65,2.04 -2.47,4.85 -2.47,8.43 0,3.75 0.79,6.59 2.38,8.52 1.58,1.92 3.87,2.89 6.87,2.89 1.3,0 2.56,-0.13 3.77,-0.39 1.22,-0.26 2.48,-0.59 3.79,-0.99l0 4.3c-2.4,0.91 -5.12,1.36 -8.16,1.36 -4.49,0 -7.93,-1.36 -10.33,-4.07 -2.4,-2.72 -3.6,-6.6 -3.6,-11.66 0,-3.18 0.58,-5.97 1.74,-8.35 1.17,-2.39 2.85,-4.22 5.06,-5.48 2.21,-1.27 4.8,-1.91 7.77,-1.91 3.13,0 6.03,0.66 8.68,1.96l-1.8 4.17c-1.04,-0.49 -2.13,-0.92 -3.28,-1.29 -1.15,-0.37 -2.37,-0.56 -3.64,-0.56z"/>
  <path id="_3" class="fil1" d="M204.46 70.95l-3.06 -8.49 -11.7 0 -3 8.49 -5.27 0 11.45 -30.75 5.45 0 11.45 30.75 -5.32 0zm-4.37 -12.82l-2.87 -8.33c-0.21,-0.56 -0.5,-1.44 -0.87,-2.64 -0.37,-1.2 -0.62,-2.08 -0.77,-2.64 -0.38,1.72 -0.93,3.59 -1.65,5.64l-2.77 7.98 8.92 0z"/>
  <path id="_4" class="fil1" d="M228.87 64.36c0,2.26 -0.82,3.99 -2.47,5.2 -1.64,1.21 -4.01,1.81 -7.08,1.81 -3.09,0 -5.57,-0.47 -7.44,-1.41l0 -4.25c2.72,1.26 5.26,1.89 7.6,1.89 3.03,0 4.54,-0.91 4.54,-2.74 0,-0.59 -0.16,-1.07 -0.5,-1.47 -0.34,-0.39 -0.89,-0.79 -1.66,-1.21 -0.76,-0.42 -1.84,-0.89 -3.2,-1.43 -2.67,-1.03 -4.47,-2.07 -5.42,-3.09 -0.94,-1.04 -1.42,-2.38 -1.42,-4.02 0,-1.99 0.8,-3.52 2.4,-4.62 1.6,-1.09 3.77,-1.64 6.53,-1.64 2.72,0 5.3,0.55 7.73,1.66l-1.59 3.71c-2.49,-1.04 -4.59,-1.55 -6.3,-1.55 -2.59,0 -3.9,0.74 -3.9,2.22 0,0.73 0.34,1.34 1.01,1.84 0.68,0.51 2.16,1.2 4.43,2.08 1.91,0.74 3.3,1.41 4.17,2.03 0.86,0.61 1.51,1.32 1.93,2.13 0.42,0.8 0.63,1.76 0.63,2.88z"/>
  <path id="_5" class="fil1" d="M249.74 64.36c0,2.26 -0.82,3.99 -2.47,5.2 -1.64,1.21 -4.01,1.81 -7.08,1.81 -3.09,0 -5.57,-0.47 -7.44,-1.41l0 -4.25c2.72,1.26 5.26,1.89 7.6,1.89 3.03,0 4.54,-0.91 4.54,-2.74 0,-0.59 -0.16,-1.07 -0.5,-1.47 -0.34,-0.39 -0.89,-0.79 -1.66,-1.21 -0.76,-0.42 -1.84,-0.89 -3.2,-1.43 -2.67,-1.03 -4.47,-2.07 -5.42,-3.09 -0.94,-1.04 -1.42,-2.38 -1.42,-4.02 0,-1.99 0.8,-3.52 2.4,-4.62 1.6,-1.09 3.77,-1.64 6.53,-1.64 2.72,0 5.3,0.55 7.73,1.66l-1.59 3.71c-2.49,-1.04 -4.59,-1.55 -6.3,-1.55 -2.59,0 -3.9,0.74 -3.9,2.22 0,0.73 0.34,1.34 1.01,1.84 0.68,0.51 2.16,1.2 4.43,2.08 1.91,0.74 3.3,1.41 4.17,2.03 0.86,0.61 1.51,1.32 1.93,2.13 0.42,0.8 0.63,1.76 0.63,2.88z"/>
  <path id="_6" class="fil1" d="M265.17 71.38c-3.6,0 -6.42,-1.05 -8.45,-3.15 -2.03,-2.1 -3.04,-5 -3.04,-8.69 0,-3.78 0.94,-6.76 2.82,-8.93 1.89,-2.17 4.47,-3.24 7.77,-3.24 3.05,0 5.47,0.93 7.24,2.79 1.77,1.86 2.66,4.42 2.66,7.68l0 2.66 -15.42 0c0.06,2.24 0.67,3.97 1.81,5.18 1.15,1.21 2.76,1.81 4.84,1.81 1.36,0 2.64,-0.13 3.82,-0.39 1.18,-0.26 2.45,-0.69 3.8,-1.29l0 4c-1.2,0.57 -2.42,0.98 -3.64,1.22 -1.22,0.24 -2.63,0.36 -4.2,0.36zm-0.9 -20.28c-1.57,0 -2.82,0.49 -3.76,1.49 -0.94,0.99 -1.5,2.44 -1.69,4.35l10.51 0c-0.03,-1.91 -0.49,-3.37 -1.38,-4.35 -0.89,-0.99 -2.12,-1.48 -3.68,-1.48z"/>
  <path id="_7" class="fil1" d="M288.39 67.39c1.2,0 2.4,-0.19 3.6,-0.57l0 3.72c-0.54,0.24 -1.25,0.44 -2.11,0.59 -0.86,0.16 -1.74,0.24 -2.67,0.24 -4.66,0 -6.99,-2.46 -6.99,-7.38l0 -12.48 -3.17 0 0 -2.18 3.39 -1.8 1.67 -4.9 3.04 0 0 5.15 6.6 0 0 3.73 -6.6 0 0 12.39c0,1.19 0.29,2.06 0.89,2.62 0.59,0.56 1.37,0.85 2.34,0.85z"/>
  <path id="_8" class="fil1" d="M321.51 70.95l-8.88 -25.57 -0.17 0c0.24,3.8 0.36,7.36 0.36,10.68l0 14.89 -4.54 0 0 -30.62 7.05 0 8.5 24.36 0.12 0 8.75 -24.36 7.08 0 0 30.62 -4.81 0 0 -15.14c0,-1.52 0.04,-3.5 0.11,-5.95 0.07,-2.44 0.14,-3.92 0.2,-4.44l-0.17 0 -9.19 25.53 -4.42 0z"/>
  <path id="_9" class="fil1" d="M361.81 70.95l-0.99 -3.22 -0.16 0c-1.11,1.41 -2.24,2.37 -3.37,2.88 -1.13,0.51 -2.58,0.76 -4.35,0.76 -2.27,0 -4.05,-0.61 -5.32,-1.84 -1.28,-1.23 -1.92,-2.97 -1.92,-5.22 0,-2.39 0.89,-4.19 2.66,-5.4 1.77,-1.22 4.47,-1.88 8.1,-1.99l4 -0.13 0 -1.24c0,-1.48 -0.35,-2.59 -1.04,-3.32 -0.69,-0.74 -1.77,-1.1 -3.22,-1.1 -1.19,0 -2.32,0.17 -3.41,0.52 -1.09,0.35 -2.14,0.77 -3.14,1.24l-1.59 -3.52c1.25,-0.66 2.63,-1.16 4.12,-1.5 1.49,-0.34 2.9,-0.51 4.22,-0.51 2.95,0 5.17,0.64 6.67,1.93 1.5,1.28 2.25,3.3 2.25,6.05l0 15.6 -3.52 0zm-7.33 -3.34c1.79,0 3.22,-0.5 4.3,-1.5 1.08,-1 1.62,-2.4 1.62,-4.2l0 -2.02 -2.97 0.13c-2.32,0.08 -4,0.47 -5.05,1.16 -1.06,0.69 -1.59,1.75 -1.59,3.17 0,1.04 0.31,1.84 0.92,2.4 0.61,0.56 1.54,0.85 2.76,0.85z"/>
  <path id="_10" class="fil1" d="M392.58 70.95l-4.94 0 0 -14.24c0,-1.79 -0.37,-3.12 -1.08,-3.99 -0.72,-0.88 -1.86,-1.32 -3.43,-1.32 -2.08,0 -3.6,0.61 -4.57,1.84 -0.96,1.23 -1.44,3.29 -1.44,6.17l0 11.53 -4.92 0 0 -23.16 3.85 0 0.69 3.03 0.25 0c0.7,-1.11 1.69,-1.96 2.97,-2.56 1.29,-0.6 2.72,-0.9 4.27,-0.9 5.56,0 8.34,2.83 8.34,8.48l0 15.1z"/>
  <path id="_11" class="fil1" d="M413.9 70.95l-0.99 -3.22 -0.16 0c-1.11,1.41 -2.24,2.37 -3.37,2.88 -1.13,0.51 -2.58,0.76 -4.35,0.76 -2.27,0 -4.05,-0.61 -5.32,-1.84 -1.28,-1.23 -1.92,-2.97 -1.92,-5.22 0,-2.39 0.89,-4.19 2.66,-5.4 1.77,-1.22 4.47,-1.88 8.1,-1.99l4 -0.13 0 -1.24c0,-1.48 -0.35,-2.59 -1.04,-3.32 -0.69,-0.74 -1.77,-1.1 -3.22,-1.1 -1.19,0 -2.32,0.17 -3.41,0.52 -1.09,0.35 -2.14,0.77 -3.14,1.24l-1.59 -3.52c1.25,-0.66 2.63,-1.16 4.12,-1.5 1.49,-0.34 2.9,-0.51 4.22,-0.51 2.95,0 5.17,0.64 6.67,1.93 1.5,1.28 2.25,3.3 2.25,6.05l0 15.6 -3.52 0zm-7.33 -3.34c1.79,0 3.22,-0.5 4.3,-1.5 1.08,-1 1.62,-2.4 1.62,-4.2l0 -2.02 -2.97 0.13c-2.32,0.08 -4,0.47 -5.05,1.16 -1.06,0.69 -1.59,1.75 -1.59,3.17 0,1.04 0.31,1.84 0.92,2.4 0.61,0.56 1.54,0.85 2.76,0.85z"/>
  <path id="_12" class="fil1" d="M443.84 47.8l0 2.7 -3.96 0.73c0.37,0.49 0.67,1.09 0.9,1.8 0.24,0.72 0.36,1.47 0.36,2.26 0,2.39 -0.82,4.27 -2.47,5.64 -1.64,1.36 -3.91,2.05 -6.8,2.05 -0.74,0 -1.41,-0.06 -2.01,-0.16 -1.06,0.65 -1.59,1.42 -1.59,2.3 0,0.53 0.24,0.93 0.74,1.19 0.49,0.27 1.4,0.4 2.73,0.4l4.04 0c2.55,0 4.49,0.54 5.82,1.63 1.33,1.09 1.99,2.66 1.99,4.71 0,2.62 -1.08,4.64 -3.24,6.06 -2.16,1.42 -5.29,2.14 -9.38,2.14 -3.15,0 -5.56,-0.56 -7.22,-1.67 -1.66,-1.12 -2.5,-2.71 -2.5,-4.77 0,-1.43 0.45,-2.62 1.35,-3.59 0.9,-0.96 2.17,-1.64 3.78,-2.02 -0.66,-0.28 -1.19,-0.73 -1.62,-1.35 -0.43,-0.62 -0.64,-1.27 -0.64,-1.96 0,-0.86 0.24,-1.59 0.73,-2.19 0.49,-0.6 1.21,-1.19 2.18,-1.78 -1.2,-0.52 -2.17,-1.36 -2.92,-2.53 -0.74,-1.17 -1.11,-2.53 -1.11,-4.1 0,-2.52 0.79,-4.46 2.37,-5.85 1.59,-1.38 3.84,-2.07 6.77,-2.07 0.66,0 1.34,0.04 2.07,0.14 0.72,0.09 1.26,0.19 1.62,0.29l8.02 0zm-18.19 26.75c0,1.06 0.47,1.88 1.43,2.45 0.96,0.57 2.3,0.86 4.03,0.86 2.68,0 4.67,-0.39 5.98,-1.15 1.32,-0.77 1.97,-1.79 1.97,-3.06 0,-1 -0.37,-1.72 -1.08,-2.14 -0.72,-0.42 -2.06,-0.64 -4.01,-0.64l-3.72 0c-1.41,0 -2.53,0.33 -3.36,0.99 -0.83,0.66 -1.24,1.56 -1.24,2.69zm2.11 -19.26c0,1.45 0.38,2.57 1.12,3.35 0.75,0.78 1.81,1.17 3.22,1.17 2.84,0 4.27,-1.52 4.27,-4.56 0,-1.5 -0.35,-2.67 -1.06,-3.48 -0.71,-0.81 -1.77,-1.22 -3.21,-1.22 -1.43,0 -2.5,0.41 -3.24,1.22 -0.73,0.81 -1.1,1.99 -1.1,3.53z"/>
  <path id="_13" class="fil1" d="M458.25 71.38c-3.6,0 -6.42,-1.05 -8.45,-3.15 -2.03,-2.1 -3.04,-5 -3.04,-8.69 0,-3.78 0.94,-6.76 2.82,-8.93 1.89,-2.17 4.47,-3.24 7.77,-3.24 3.05,0 5.47,0.93 7.24,2.79 1.77,1.86 2.66,4.42 2.66,7.68l0 2.66 -15.42 0c0.06,2.24 0.67,3.97 1.81,5.18 1.15,1.21 2.76,1.81 4.84,1.81 1.36,0 2.64,-0.13 3.82,-0.39 1.18,-0.26 2.45,-0.69 3.8,-1.29l0 4c-1.2,0.57 -2.42,0.98 -3.64,1.22 -1.22,0.24 -2.63,0.36 -4.2,0.36zm-0.9 -20.28c-1.57,0 -2.82,0.49 -3.76,1.49 -0.94,0.99 -1.5,2.44 -1.69,4.35l10.51 0c-0.03,-1.91 -0.49,-3.37 -1.38,-4.35 -0.89,-0.99 -2.12,-1.48 -3.68,-1.48z"/>
  <path id="_14" class="fil1" d="M492.35 70.95l-4.94 0 0 -14.28c0,-1.77 -0.34,-3.09 -1.01,-3.97 -0.66,-0.87 -1.72,-1.31 -3.14,-1.31 -1.9,0 -3.29,0.61 -4.17,1.85 -0.89,1.24 -1.33,3.29 -1.33,6.17l0 11.53 -4.92 0 0 -23.16 3.85 0 0.69 3.03 0.25 0c0.64,-1.11 1.57,-1.96 2.79,-2.56 1.22,-0.6 2.57,-0.9 4.03,-0.9 3.56,0 5.92,1.22 7.08,3.64l0.34 0c0.69,-1.14 1.65,-2.04 2.89,-2.68 1.24,-0.64 2.67,-0.96 4.27,-0.96 2.77,0 4.77,0.7 6.04,2.09 1.27,1.39 1.89,3.52 1.89,6.39l0 15.1 -4.92 0 0 -14.28c0,-1.77 -0.34,-3.09 -1.01,-3.97 -0.68,-0.87 -1.73,-1.31 -3.15,-1.31 -1.91,0 -3.32,0.59 -4.2,1.79 -0.89,1.19 -1.33,3.03 -1.33,5.5l0 12.27z"/>
  <path id="_15" class="fil1" d="M523.95 71.38c-3.6,0 -6.42,-1.05 -8.45,-3.15 -2.03,-2.1 -3.04,-5 -3.04,-8.69 0,-3.78 0.94,-6.76 2.82,-8.93 1.89,-2.17 4.47,-3.24 7.77,-3.24 3.05,0 5.47,0.93 7.24,2.79 1.77,1.86 2.66,4.42 2.66,7.68l0 2.66 -15.42 0c0.06,2.24 0.67,3.97 1.81,5.18 1.15,1.21 2.76,1.81 4.84,1.81 1.36,0 2.64,-0.13 3.82,-0.39 1.18,-0.26 2.45,-0.69 3.8,-1.29l0 4c-1.2,0.57 -2.42,0.98 -3.64,1.22 -1.22,0.24 -2.63,0.36 -4.2,0.36zm-0.9 -20.28c-1.57,0 -2.82,0.49 -3.76,1.49 -0.94,0.99 -1.5,2.44 -1.69,4.35l10.51 0c-0.03,-1.91 -0.49,-3.37 -1.38,-4.35 -0.89,-0.99 -2.12,-1.48 -3.68,-1.48z"/>
  <path id="_16" class="fil1" d="M558.93 70.95l-4.94 0 0 -14.24c0,-1.79 -0.37,-3.12 -1.08,-3.99 -0.72,-0.88 -1.86,-1.32 -3.43,-1.32 -2.08,0 -3.6,0.61 -4.57,1.84 -0.96,1.23 -1.44,3.29 -1.44,6.17l0 11.53 -4.92 0 0 -23.16 3.85 0 0.69 3.03 0.25 0c0.7,-1.11 1.69,-1.96 2.97,-2.56 1.29,-0.6 2.72,-0.9 4.27,-0.9 5.56,0 8.34,2.83 8.34,8.48l0 15.1z"/>
  <path id="_17" class="fil1" d="M574.39 67.39c1.2,0 2.4,-0.19 3.6,-0.57l0 3.72c-0.54,0.24 -1.25,0.44 -2.11,0.59 -0.86,0.16 -1.74,0.24 -2.67,0.24 -4.66,0 -6.99,-2.46 -6.99,-7.38l0 -12.48 -3.17 0 0 -2.18 3.39 -1.8 1.67 -4.9 3.04 0 0 5.15 6.6 0 0 3.73 -6.6 0 0 12.39c0,1.19 0.29,2.06 0.89,2.62 0.59,0.56 1.37,0.85 2.34,0.85z"/>
  <path class="fil1" d="M118.31 93.02l-2.03 -7.14 -0.06 0c0.1,1.22 0.14,2.16 0.14,2.83l0 4.3 -2.37 0 0 -9.91 3.56 0 2.07 7.03 0.06 0 2.03 -7.03 3.57 0 0 9.91 -2.46 0 0 -4.34c0,-0.23 0,-0.48 0.01,-0.75 0.01,-0.28 0.04,-0.95 0.09,-2.03l-0.06 0 -2 7.12 -2.55 0z"/>
  <path id="_1_0" class="fil1" d="M135.83 83.11l0 5.96c0,1.3 -0.37,2.3 -1.1,3.01 -0.73,0.71 -1.79,1.07 -3.18,1.07 -1.35,0 -2.39,-0.34 -3.11,-1.04 -0.73,-0.69 -1.09,-1.69 -1.09,-2.98l0 -6.03 2.69 0 0 5.81c0,0.7 0.13,1.21 0.39,1.52 0.26,0.32 0.65,0.47 1.16,0.47 0.55,0 0.94,-0.16 1.19,-0.47 0.24,-0.31 0.37,-0.83 0.37,-1.54l0 -5.8 2.68 0z"/>
  <polygon id="_2_1" class="fil1" points="142.28,93.02 139.61,93.02 139.61,85.3 137.18,85.3 137.18,83.11 144.7,83.11 144.7,85.3 142.28,85.3 "/>
  <path id="_3_2" class="fil1" d="M154.53 83.11l0 5.96c0,1.3 -0.37,2.3 -1.1,3.01 -0.73,0.71 -1.79,1.07 -3.18,1.07 -1.35,0 -2.39,-0.34 -3.11,-1.04 -0.73,-0.69 -1.09,-1.69 -1.09,-2.98l0 -6.03 2.69 0 0 5.81c0,0.7 0.13,1.21 0.39,1.52 0.26,0.32 0.65,0.47 1.16,0.47 0.55,0 0.94,-0.16 1.19,-0.47 0.24,-0.31 0.37,-0.83 0.37,-1.54l0 -5.8 2.68 0z"/>
  <path id="_4_3" class="fil1" d="M162.55 93.02l-0.49 -1.86 -3.22 0 -0.5 1.86 -2.94 0 3.23 -9.95 3.57 0 3.27 9.95 -2.93 0zm-1.04 -4.05l-0.43 -1.63c-0.1,-0.36 -0.22,-0.83 -0.36,-1.4 -0.14,-0.58 -0.24,-0.99 -0.28,-1.24 -0.04,0.23 -0.12,0.61 -0.24,1.14 -0.12,0.53 -0.39,1.57 -0.8,3.12l2.11 0z"/>
  <polygon id="_5_4" class="fil1" points="166.55,93.02 166.55,83.11 169.22,83.11 169.22,90.85 173.04,90.85 173.04,93.02 "/>
  <polygon id="_6_5" class="fil1" points="180.86,93.02 178.23,93.02 178.23,83.11 184.08,83.11 184.08,85.26 180.86,85.26 180.86,87.15 183.83,87.15 183.83,89.3 180.86,89.3 "/>
  <path id="_7_6" class="fil1" d="M194.13 83.11l0 5.96c0,1.3 -0.37,2.3 -1.1,3.01 -0.73,0.71 -1.79,1.07 -3.18,1.07 -1.35,0 -2.39,-0.34 -3.11,-1.04 -0.73,-0.69 -1.09,-1.69 -1.09,-2.98l0 -6.03 2.69 0 0 5.81c0,0.7 0.13,1.21 0.39,1.52 0.26,0.32 0.65,0.47 1.16,0.47 0.55,0 0.94,-0.16 1.19,-0.47 0.24,-0.31 0.37,-0.83 0.37,-1.54l0 -5.8 2.68 0z"/>
  <path id="_8_7" class="fil1" d="M205.64 93.02l-3.51 0 -3.62 -6.98 -0.06 0c0.09,1.1 0.13,1.94 0.13,2.51l0 4.47 -2.37 0 0 -9.91 3.5 0 3.6 6.88 0.04 0c-0.06,-1 -0.1,-1.8 -0.1,-2.41l0 -4.48 2.39 0 0 9.91z"/>
  <path id="_9_8" class="fil1" d="M216.19 87.85c0,1.65 -0.46,2.93 -1.36,3.82 -0.91,0.89 -2.19,1.34 -3.84,1.34l-3.2 0 0 -9.91 3.43 0c1.59,0 2.82,0.41 3.68,1.22 0.86,0.81 1.3,1.99 1.3,3.52zm-2.78 0.1c0,-0.91 -0.18,-1.58 -0.54,-2.02 -0.36,-0.44 -0.9,-0.66 -1.64,-0.66l-0.78 0 0 5.55 0.6 0c0.81,0 1.41,-0.24 1.79,-0.71 0.38,-0.47 0.57,-1.19 0.57,-2.17z"/>
  <path id="_10_9" class="fil1" d="M224.44 90.01c0,0.62 -0.16,1.16 -0.47,1.64 -0.31,0.48 -0.76,0.85 -1.35,1.11 -0.59,0.26 -1.28,0.39 -2.07,0.39 -0.66,0 -1.21,-0.05 -1.66,-0.14 -0.45,-0.09 -0.91,-0.25 -1.39,-0.49l0 -2.39c0.51,0.26 1.04,0.46 1.59,0.61 0.55,0.15 1.06,0.22 1.52,0.22 0.4,0 0.69,-0.07 0.87,-0.21 0.19,-0.14 0.28,-0.31 0.28,-0.53 0,-0.14 -0.04,-0.25 -0.11,-0.36 -0.07,-0.1 -0.19,-0.2 -0.36,-0.31 -0.16,-0.1 -0.6,-0.32 -1.32,-0.64 -0.65,-0.29 -1.13,-0.58 -1.45,-0.85 -0.32,-0.28 -0.56,-0.59 -0.72,-0.95 -0.16,-0.36 -0.23,-0.78 -0.23,-1.27 0,-0.91 0.33,-1.62 0.99,-2.13 0.66,-0.51 1.58,-0.77 2.74,-0.77 1.02,0 2.07,0.24 3.14,0.71l-0.82 2.06c-0.93,-0.42 -1.72,-0.64 -2.4,-0.64 -0.35,0 -0.6,0.06 -0.76,0.18 -0.16,0.12 -0.24,0.28 -0.24,0.46 0,0.19 0.1,0.37 0.3,0.52 0.2,0.15 0.74,0.43 1.63,0.84 0.85,0.38 1.45,0.8 1.78,1.24 0.33,0.44 0.5,0.99 0.5,1.66z"/>
  <polygon class="fil1" points="256.06,93.02 253.43,93.02 253.43,83.11 259.28,83.11 259.28,85.26 256.06,85.26 256.06,87.15 259.03,87.15 259.03,89.3 256.06,89.3 "/>
  <polygon id="_1_10" class="fil1" points="260.91,93.02 260.91,83.11 263.6,83.11 263.6,93.02 "/>
  <polygon id="_2_11" class="fil1" points="274.66,93.02 271.57,93.02 269.63,89.92 267.72,93.02 264.7,93.02 267.98,87.95 264.89,83.11 267.86,83.11 269.65,86.17 271.37,83.11 274.42,83.11 271.29,88.16 "/>
  <polygon id="_3_12" class="fil1" points="281.66,93.02 275.78,93.02 275.78,83.11 281.66,83.11 281.66,85.26 278.45,85.26 278.45,86.82 281.42,86.82 281.42,88.97 278.45,88.97 278.45,90.84 281.66,90.84 "/>
  <path id="_4_13" class="fil1" d="M291.8 87.85c0,1.65 -0.46,2.93 -1.36,3.82 -0.91,0.89 -2.19,1.34 -3.84,1.34l-3.2 0 0 -9.91 3.43 0c1.59,0 2.82,0.41 3.68,1.22 0.86,0.81 1.3,1.99 1.3,3.52zm-2.78 0.1c0,-0.91 -0.18,-1.58 -0.54,-2.02 -0.36,-0.44 -0.9,-0.66 -1.64,-0.66l-0.78 0 0 5.55 0.6 0c0.81,0 1.41,-0.24 1.79,-0.71 0.38,-0.47 0.57,-1.19 0.57,-2.17z"/>
  <polygon id="_5_14" class="fil1" points="297.18,93.02 297.18,83.11 299.87,83.11 299.87,93.02 "/>
  <path id="_6_15" class="fil1" d="M311.44 93.02l-3.51 0 -3.62 -6.98 -0.06 0c0.09,1.1 0.13,1.94 0.13,2.51l0 4.47 -2.37 0 0 -9.91 3.5 0 3.6 6.88 0.04 0c-0.06,-1 -0.1,-1.8 -0.1,-2.41l0 -4.48 2.39 0 0 9.91z"/>
  <path id="_7_16" class="fil1" d="M317.99 85.16c-0.64,0 -1.13,0.26 -1.49,0.78 -0.36,0.52 -0.54,1.24 -0.54,2.16 0,1.91 0.73,2.86 2.18,2.86 0.44,0 0.86,-0.06 1.27,-0.18 0.41,-0.12 0.82,-0.27 1.24,-0.44l0 2.27c-0.83,0.37 -1.76,0.55 -2.81,0.55 -1.5,0 -2.64,-0.43 -3.44,-1.3 -0.8,-0.87 -1.2,-2.12 -1.2,-3.76 0,-1.02 0.19,-1.93 0.58,-2.7 0.39,-0.78 0.94,-1.37 1.67,-1.79 0.73,-0.42 1.58,-0.63 2.56,-0.63 1.07,0 2.09,0.23 3.07,0.7l-0.82 2.11c-0.37,-0.17 -0.73,-0.32 -1.1,-0.44 -0.37,-0.12 -0.76,-0.18 -1.18,-0.18z"/>
  <path id="_8_17" class="fil1" d="M331.58 88.05c0,1.67 -0.41,2.93 -1.23,3.8 -0.82,0.87 -2.01,1.3 -3.59,1.3 -1.55,0 -2.75,-0.44 -3.58,-1.31 -0.83,-0.87 -1.24,-2.14 -1.24,-3.81 0,-1.65 0.41,-2.91 1.24,-3.78 0.82,-0.87 2.02,-1.3 3.59,-1.3 1.58,0 2.77,0.43 3.58,1.29 0.81,0.86 1.22,2.13 1.22,3.8zm-6.82 -0c0,1.91 0.67,2.87 2,2.87 0.68,0 1.18,-0.23 1.51,-0.7 0.33,-0.46 0.49,-1.19 0.49,-2.17 0,-0.99 -0.17,-1.72 -0.5,-2.19 -0.33,-0.47 -0.83,-0.71 -1.49,-0.71 -1.34,0 -2.01,0.97 -2.01,2.9z"/>
  <path id="_9_18" class="fil1" d="M337.68 93.02l-2.03 -7.14 -0.06 0c0.1,1.22 0.14,2.16 0.14,2.83l0 4.3 -2.37 0 0 -9.91 3.56 0 2.07 7.03 0.06 0 2.03 -7.03 3.57 0 0 9.91 -2.46 0 0 -4.34c0,-0.23 0,-0.48 0.01,-0.75 0.01,-0.28 0.04,-0.95 0.09,-2.03l-0.06 0 -2 7.12 -2.55 0z"/>
  <polygon id="_10_19" class="fil1" points="352.66,93.02 346.78,93.02 346.78,83.11 352.66,83.11 352.66,85.26 349.46,85.26 349.46,86.82 352.43,86.82 352.43,88.97 349.46,88.97 349.46,90.84 352.66,90.84 "/>
  <path class="fil1" d="M401.62 93.02l-3.16 0 -0.95 -4.32c-0.04,-0.18 -0.12,-0.54 -0.21,-1.08 -0.1,-0.54 -0.17,-0.99 -0.21,-1.35 -0.04,0.29 -0.1,0.66 -0.18,1.1 -0.08,0.44 -0.16,0.84 -0.24,1.2 -0.08,0.37 -0.41,1.85 -0.99,4.44l-3.17 0 -2.45 -9.91 2.58 0 1.08 4.97c0.24,1.1 0.41,1.97 0.5,2.62 0.06,-0.46 0.16,-1.09 0.31,-1.88 0.15,-0.79 0.29,-1.45 0.42,-1.97l0.87 -3.75 2.48 0 0.85 3.75c0.15,0.6 0.29,1.3 0.44,2.08 0.15,0.79 0.25,1.37 0.3,1.76 0.06,-0.5 0.22,-1.37 0.48,-2.61l1.1 -4.98 2.58 0 -2.44 9.91z"/>
  <polygon id="_1_20" class="fil1" points="411.22,93.02 405.34,93.02 405.34,83.11 411.22,83.11 411.22,85.26 408.02,85.26 408.02,86.82 410.99,86.82 410.99,88.97 408.02,88.97 408.02,90.84 411.22,90.84 "/>
  <path id="_2_21" class="fil1" d="M419.03 93.02l-0.49 -1.86 -3.22 0 -0.5 1.86 -2.94 0 3.23 -9.95 3.57 0 3.27 9.95 -2.93 0zm-1.04 -4.05l-0.43 -1.63c-0.1,-0.36 -0.22,-0.83 -0.36,-1.4 -0.14,-0.58 -0.24,-0.99 -0.28,-1.24 -0.04,0.23 -0.12,0.61 -0.24,1.14 -0.12,0.53 -0.39,1.57 -0.8,3.12l2.11 0z"/>
  <polygon id="_3_22" class="fil1" points="423.03,93.02 423.03,83.11 425.71,83.11 425.71,90.85 429.52,90.85 429.52,93.02 "/>
  <polygon id="_4_23" class="fil1" points="435.2,93.02 432.52,93.02 432.52,85.3 430.1,85.3 430.1,83.11 437.61,83.11 437.61,85.3 435.2,85.3 "/>
  <polygon id="_5_24" class="fil1" points="447.51,93.02 444.82,93.02 444.82,88.98 441.72,88.98 441.72,93.02 439.03,93.02 439.03,83.11 441.72,83.11 441.72,86.79 444.82,86.79 444.82,83.11 447.51,83.11 "/>
  <path id="_6_25" class="fil1" d="M457.58 93.02l-2.03 -7.14 -0.06 0c0.1,1.22 0.14,2.16 0.14,2.83l0 4.3 -2.37 0 0 -9.91 3.56 0 2.07 7.03 0.06 0 2.03 -7.03 3.57 0 0 9.91 -2.46 0 0 -4.34c0,-0.23 0,-0.48 0.01,-0.75 0.01,-0.28 0.04,-0.95 0.09,-2.03l-0.06 0 -2 7.12 -2.55 0z"/>
  <path id="_7_26" class="fil1" d="M472.75 93.02l-0.49 -1.86 -3.22 0 -0.5 1.86 -2.94 0 3.23 -9.95 3.57 0 3.27 9.95 -2.93 0zm-1.04 -4.05l-0.43 -1.63c-0.1,-0.36 -0.22,-0.83 -0.36,-1.4 -0.14,-0.58 -0.24,-0.99 -0.28,-1.24 -0.04,0.23 -0.12,0.61 -0.24,1.14 -0.12,0.53 -0.39,1.57 -0.8,3.12l2.11 0z"/>
  <path id="_8_27" class="fil1" d="M486.18 93.02l-3.51 0 -3.62 -6.98 -0.06 0c0.09,1.1 0.13,1.94 0.13,2.51l0 4.47 -2.37 0 0 -9.91 3.5 0 3.6 6.88 0.04 0c-0.06,-1 -0.1,-1.8 -0.1,-2.41l0 -4.48 2.39 0 0 9.91z"/>
  <path id="_9_28" class="fil1" d="M494.4 93.02l-0.49 -1.86 -3.22 0 -0.5 1.86 -2.94 0 3.23 -9.95 3.57 0 3.27 9.95 -2.93 0zm-1.04 -4.05l-0.43 -1.63c-0.1,-0.36 -0.22,-0.83 -0.36,-1.4 -0.14,-0.58 -0.24,-0.99 -0.28,-1.24 -0.04,0.23 -0.12,0.61 -0.24,1.14 -0.12,0.53 -0.39,1.57 -0.8,3.12l2.11 0z"/>
  <path id="_10_29" class="fil1" d="M502.09 87.22l4.27 0 0 5.34c-1.16,0.4 -2.44,0.6 -3.83,0.6 -1.53,0 -2.71,-0.44 -3.54,-1.33 -0.83,-0.89 -1.25,-2.15 -1.25,-3.79 0,-1.6 0.46,-2.84 1.37,-3.74 0.91,-0.89 2.19,-1.33 3.83,-1.33 0.62,0 1.21,0.06 1.77,0.18 0.55,0.12 1.03,0.27 1.45,0.45l-0.85 2.1c-0.71,-0.35 -1.5,-0.53 -2.35,-0.53 -0.78,0 -1.39,0.26 -1.81,0.76 -0.43,0.51 -0.64,1.23 -0.64,2.18 0,0.93 0.19,1.63 0.58,2.12 0.39,0.49 0.94,0.73 1.67,0.73 0.4,0 0.76,-0.04 1.1,-0.12l0 -1.55 -1.77 0 0 -2.07z"/>
  <polygon id="_11_30" class="fil1" points="514.27,93.02 508.39,93.02 508.39,83.11 514.27,83.11 514.27,85.26 511.07,85.26 511.07,86.82 514.04,86.82 514.04,88.97 511.07,88.97 511.07,90.84 514.27,90.84 "/>
  <path id="_12_31" class="fil1" d="M520.32 93.02l-2.03 -7.14 -0.06 0c0.1,1.22 0.14,2.16 0.14,2.83l0 4.3 -2.37 0 0 -9.91 3.56 0 2.07 7.03 0.06 0 2.03 -7.03 3.57 0 0 9.91 -2.46 0 0 -4.34c0,-0.23 0,-0.48 0.01,-0.75 0.01,-0.28 0.04,-0.95 0.09,-2.03l-0.06 0 -2 7.12 -2.55 0z"/>
  <polygon id="_13_32" class="fil1" points="535.3,93.02 529.42,93.02 529.42,83.11 535.3,83.11 535.3,85.26 532.1,85.26 532.1,86.82 535.07,86.82 535.07,88.97 532.1,88.97 532.1,90.84 535.3,90.84 "/>
  <path id="_14_33" class="fil1" d="M546.47 93.02l-3.51 0 -3.62 -6.98 -0.06 0c0.09,1.1 0.13,1.94 0.13,2.51l0 4.47 -2.37 0 0 -9.91 3.5 0 3.6 6.88 0.04 0c-0.06,-1 -0.1,-1.8 -0.1,-2.41l0 -4.48 2.39 0 0 9.91z"/>
  <polygon id="_15_34" class="fil1" points="552.98,93.02 550.31,93.02 550.31,85.3 547.88,85.3 547.88,83.11 555.4,83.11 555.4,85.3 552.98,85.3 "/>
  <polygon class="fil0" points="105.27,94.2 95.08,94.2 95.08,84.01 105.27,84.01 "/>
  <polygon class="fil0" points="381.62,94.2 371.43,94.2 371.43,84.01 381.62,84.01 "/>
  <polygon class="fil0" points="577.27,94.2 567.09,94.2 567.09,84.01 577.27,84.01 "/>
  <polygon class="fil0" points="244.77,94.2 234.58,94.2 234.58,84.01 244.77,84.01 "/>
 </g>
</svg>
